<?xml version="1.0" standalone="no"?>
<!DOCTYPE svg PUBLIC "-//W3C//DTD SVG 20010904//EN"
 "http://www.w3.org/TR/2001/REC-SVG-20010904/DTD/svg10.dtd">
<svg version="1.0" xmlns="http://www.w3.org/2000/svg"
 width="100.000000pt" height="100.000000pt" viewBox="0 0 100.000000 100.000000"
 preserveAspectRatio="xMidYMid meet">

<g transform="translate(0.000000,100.000000) scale(0.100000,-0.100000)"
fill="#000000" stroke="none">
<path d="M383 986 c-219 -53 -383 -261 -383 -486 0 -270 230 -500 500 -500
270 0 500 230 500 500 0 274 -233 503 -508 499 -31 0 -80 -6 -109 -13z m265
-98 c55 -21 127 -71 168 -116 72 -80 112 -224 94 -334 -54 -335 -464 -470
-703 -231 -200 200 -143 545 110 665 108 51 221 57 331 16z"/>
<path d="M304 660 c-26 -10 -54 -48 -54 -72 0 -30 21 -65 47 -77 36 -17 59
-13 89 13 69 59 1 171 -82 136z"/>
<path d="M630 657 c-54 -28 -61 -99 -13 -137 56 -44 133 -3 133 70 0 26 -40
68 -70 75 -14 3 -36 -1 -50 -8z"/>
<path d="M437 410 c-55 -14 -97 -38 -139 -78 -39 -37 -39 -50 4 -73 15 -8 26
-4 51 17 45 38 88 54 147 54 59 0 102 -16 147 -54 25 -21 36 -25 51 -17 43 23
43 36 4 74 -67 65 -180 98 -265 77z"/>
</g>
</svg>
