<svg width="212" height="186" viewBox="0 0 212 186" fill="none" xmlns="http://www.w3.org/2000/svg">
<path fill-rule="evenodd" clip-rule="evenodd" d="M151.002 43.6C151.002 67.5415 130.855 86.95 106.002 86.95C81.149 86.95 61.0018 67.5415 61.0018 43.6C61.0018 19.6585 81.149 0.25 106.002 0.25C130.855 0.25 151.002 19.6585 151.002 43.6ZM136.002 43.6C136.002 59.561 122.57 72.5 106.002 72.5C89.4333 72.5 76.0018 59.561 76.0018 43.6C76.0018 27.639 89.4333 14.7 106.002 14.7C122.57 14.7 136.002 27.639 136.002 43.6Z" fill="#748976"/>
<path d="M106.002 108.625C57.444 108.625 16.0714 136.285 0.311523 175.038C4.15074 178.71 8.19506 182.184 12.4265 185.442C24.1621 149.863 60.9772 123.075 106.002 123.075C151.027 123.075 187.842 149.863 199.577 185.442C203.809 182.184 207.853 178.71 211.692 175.038C195.932 136.285 154.56 108.625 106.002 108.625Z" fill="#748976"/>
</svg>
