<?xml version="1.0" standalone="no"?>
<!DOCTYPE svg PUBLIC "-//W3C//DTD SVG 20010904//EN"
 "http://www.w3.org/TR/2001/REC-SVG-20010904/DTD/svg10.dtd">
<svg version="1.0" xmlns="http://www.w3.org/2000/svg"
 width="90.000000pt" height="90.000000pt" viewBox="0 0 90.000000 90.000000"
 preserveAspectRatio="xMidYMid meet">

<g transform="translate(0.000000,90.000000) scale(0.100000,-0.100000)"
fill="#000000" stroke="none">
<path d="M75 891 c-30 -13 -63 -52 -70 -83 -7 -26 -5 -28 24 -28 17 0 31 5 31
10 0 17 39 50 60 50 26 0 60 -34 60 -60 0 -10 -20 -42 -45 -70 -52 -59 -57
-80 -17 -79 19 1 40 15 72 51 40 45 45 55 45 99 0 41 -5 53 -31 80 -33 33 -92
46 -129 30z"/>
<path d="M375 803 c-30 -8 -46 -24 -43 -42 3 -13 19 -16 98 -16 84 0 102 -3
152 -28 107 -53 163 -144 163 -267 0 -85 -21 -142 -74 -203 -82 -92 -237 -121
-353 -64 -64 31 -112 81 -139 143 -19 42 -34 55 -56 47 -20 -7 -16 -39 11 -91
33 -64 99 -125 171 -159 51 -24 73 -28 145 -28 72 0 94 4 145 28 78 36 146
104 182 181 24 52 28 74 28 146 0 72 -4 94 -28 146 -57 123 -178 205 -311 210
-39 2 -80 0 -91 -3z"/>
<path d="M342 588 c-17 -17 -15 -53 3 -68 22 -19 64 -4 71 25 4 15 1 32 -6 40
-15 18 -51 20 -68 3z"/>
<path d="M582 588 c-17 -17 -15 -53 3 -68 8 -7 25 -10 40 -6 29 7 44 49 25 71
-15 18 -51 20 -68 3z"/>
<path d="M84 536 c-3 -8 -4 -25 -2 -38 2 -19 9 -23 38 -23 33 0 35 2 35 35 0
32 -3 35 -33 38 -21 2 -34 -2 -38 -12z"/>
<path d="M495 432 c-91 -32 -150 -87 -124 -118 17 -20 32 -17 60 12 30 33 80
55 144 63 45 5 50 8 50 31 0 22 -5 25 -40 27 -22 2 -63 -5 -90 -15z"/>
</g>
</svg>
